<?xml version="1.0" encoding="UTF-8"?>
<svg id="Layer_1" xmlns="http://www.w3.org/2000/svg" version="1.1" viewBox="125 280 706 706">
  <!-- Generator: Adobe Illustrator 30.7.0, SVG Export Plug-In . SVG Version: 2.1.4 Build 114)  -->
  <defs>
    <style>
      .st0 {
        fill: #18a2ef;
      }

      .st1 {
        fill: #19c0fc;
      }
    </style>
  </defs>
  <path class="st0" d="M703.6,439.05h-234.76c-5.64,0-11.14-1.72-15.77-4.93l-47.88-33.18c-4.63-3.21-10.14-4.93-15.77-4.93h-137.16c-15.29,0-27.69,12.4-27.69,27.69v114.27h506.72v-71.22c0-15.29-12.4-27.69-27.69-27.69Z"/>
  <path class="st1" d="M711.04,869.96H244.82c-18.04,0-32.96-14.04-34.05-32.05l-17.01-281.2c-1.19-19.61,14.4-36.17,34.05-36.17h500.24c19.65,0,35.23,16.56,34.05,36.17l-17.01,281.2c-1.09,18.01-16.01,32.05-34.05,32.05Z"/>
</svg>